<svg viewBox="0 0 512 512" xmlns="http://www.w3.org/2000/svg">
  <defs>
    <linearGradient id="linear-gradient" x1="95.16" y1="95.16" x2="696.67" y2="696.67" gradientUnits="userSpaceOnUse" gradientTransform="matrix(0.637125, 0, 0, 0.637125, 1.629502, 1.714479)">
      <stop offset="0" stop-color="#26c9f2"></stop>
      <stop offset="0.46" stop-color="#14d5d6"></stop>
      <stop offset="1" stop-color="#02e1ba"></stop>
    </linearGradient>
    <linearGradient id="gradient-1" x1="95.16" y1="95.16" x2="696.67" y2="696.67" gradientUnits="userSpaceOnUse" gradientTransform="matrix(1, 0, 0, 1, 125.600145, 127.530375)">
      <stop offset="0" stop-color="#26c9f2"></stop>
      <stop offset="0.46" stop-color="#14d5d6"></stop>
      <stop offset="1" stop-color="#02e1ba"></stop>
    </linearGradient>
  </defs>
  <circle class="cls-1" cx="256.481" cy="256.566" r="254.851" style="fill: url(#linear-gradient);"></circle>
  <path class="cls-2" d="M 121.899 130.886 L 121.899 379.55 L 98.376 379.55 L 98.376 130.886 L 121.899 130.886 Z" style="fill: rgb(255, 255, 255);"></path>
  <path class="cls-2" d="M 209.097 370.648 C 195.323 362.918 184.459 351.942 176.501 337.716 C 168.546 323.49 164.569 306.858 164.573 287.817 C 164.573 268.778 168.609 252.146 176.681 237.916 C 184.75 223.687 195.726 212.71 209.606 204.983 C 223.495 197.253 239.067 193.388 256.321 193.388 C 273.575 193.388 289.194 197.253 303.181 204.983 C 317.072 212.602 328.5 224.026 336.12 237.916 C 344.064 252.146 348.039 268.778 348.047 287.817 C 348.047 306.628 344.013 323.206 335.941 337.55 C 328.239 351.531 316.697 363.015 302.679 370.648 C 288.562 378.38 272.882 382.242 255.633 382.239 C 238.383 382.235 222.87 378.371 209.097 370.648 Z M 289.241 353.51 C 299.541 348.026 307.887 339.743 314.278 328.663 C 320.672 317.581 323.857 303.972 323.837 287.835 C 323.837 271.695 320.7 258.086 314.427 247.009 C 308.152 235.932 299.871 227.648 289.579 222.161 C 268.521 211.185 243.431 211.185 222.375 222.161 C 212.066 227.652 203.833 235.935 197.674 247.009 C 191.514 258.081 188.434 271.69 188.434 287.835 C 188.434 303.975 191.514 317.584 197.674 328.663 C 203.833 339.74 212.009 348.022 222.203 353.51 C 232.479 359.02 243.98 361.851 255.639 361.742 C 267.35 361.839 278.901 359.01 289.241 353.51 Z" style="fill: rgb(255, 255, 255);"></path>
  <path class="cls-2" d="M 414.582 130.886 L 414.582 379.55 L 391.06 379.55 L 391.06 130.886 L 414.582 130.886 Z" style="fill: rgb(255, 255, 255);"></path>
</svg>